#!OML:ASF F:\VICON\USERDATA\INSTALL\rory3\rory3.ASF
:FULLY-SPECIFIED
:DEGREES
64
root 0.029104966278372973 17.642071096942356 23.004186835937226 4.9803588213082985 0.6984562033322483 -1.0353092656227478
lfemur 10.626147238696776 -0.46912924619509505 -26.123659600673463
ltibia 23.714693452994066
lfoot 5.889756841914753 -9.22917457232009
ltoes -11.775258066237424
rfemur -30.073429707063475 2.1182638483324565 26.234255109874983
rtibia 49.977122313098725
rfoot 18.436827320713615 -4.622501829032838
rtoes 14.419462556391414
lowerback 17.0124707582366 0.009326896241394711 -0.5268700319936594
upperback -0.6276792467159014 -0.2949229815081382 2.6669280285297337
thorax -9.646387329684062 -0.28534687837066774 2.926553655205194
lowerneck -20.894774032604836 -3.41224979142805 -2.431351712912979
upperneck 13.074670951622915 -3.9796153006808437 3.5857592961008367
head 7.611000145276599 -1.8354616941651587 0.9738350819345252
lclavicle -1.735741353118627e-15 1.7646156126649014e-15
lhumerus -48.23339736838509 -15.96477259826703 98.4556096093372
lradius 118.61365285035157
lwrist 34.209718878713865
lhand -24.87584989668247 2.64759688196529
lfingers 7.12502
lthumb 1.5853756630941624 32.427770648922504
rclavicle -1.7256695388794548e-15 1.785927598740653e-15
rhumerus -52.34809206655494 10.876164984134729 -98.18726464761673
rradius 105.02365605642984
rwrist -13.283813569952954
rhand -16.021371740596198 40.015328207595275
rfingers 7.12502
rthumb 10.14715007076914 10.374569578723921
65
root -0.0015646603561851047 17.640819270526546 23.87745303395374 4.987302857991262 0.7327701005857771 -1.1935814058164702
lfemur 10.037829842011059 -1.6402487988621555 -25.349372506513667
ltibia 26.391292285681757
lfoot 5.191774370546895 -9.459329005361246
ltoes -12.245427711447938
rfemur -29.25125313505839 1.8616037363583953 26.74002689227057
rtibia 52.810842035083944
rfoot 19.46339310368731 -4.645285238152996
rtoes 12.07072215361489
lowerback 17.05384605198746 0.011778254073580685 -0.2352923391716797
upperback -0.6641163237893927 -0.03214864240281057 2.8715809881485748
thorax -9.579668321112825 -0.3776772402098231 3.1377336684180586
lowerneck -20.997321881062547 -3.3937267842192553 -2.4578653060599773
upperneck 13.07838122029795 -3.9771322764000767 3.5915196085205623
head 7.614189942682643 -1.8105671124060239 0.9613385068510685
lclavicle -1.7357413398130493e-15 1.764615479136974e-15
lhumerus -48.661454128452974 -15.711029499651836 98.85870829224709
lradius 118.20712623454433
lwrist 34.081598853808366
lhand -24.88717644131316 2.743634688603723
lfingers 7.12502
lthumb 1.580865503664708 32.54343878971674
rclavicle -1.7256695169932618e-15 1.7859276154174796e-15
rhumerus -52.50626214786898 10.807182312078334 -98.20147653277866
rradius 106.11440202324052
rwrist -13.386328694771088
rhand -16.08468441169525 40.03402718909593
rfingers 7.12502
rthumb 10.060837185603717 10.386419690691735
66
root -0.03274818306781355 17.657297871491057 24.74553050954483 4.938184249202607 0.7505909941008629 -1.400546528400049
lfemur 7.533602492912996 -2.6730803158302914 -24.426384373265872
ltibia 33.30769455664495
lfoot 5.766479737255047 -8.869381375150517
ltoes -12.765476353843503
rfemur -28.358467248117023 1.4534300362221932 27.389296713294087
rtibia 55.81432932500152
rfoot 18.92700709295305 -4.858488933566025
rtoes 9.37178016277749
lowerback 17.116462699968782 0.03495310369139004 0.07702247170009069
upperback -0.7020563782529337 0.28304589094551535 2.9956084307173576
thorax -9.54272296791493 -0.4428263363053756 3.264889059135701
lowerneck -21.0745883242357 -3.3580692824318366 -2.474366359777761
upperneck 13.167867623766593 -3.9714635726636978 3.5562882861096314
head 7.624837741910097 -1.7741594827804774 0.944102078406417
lclavicle -1.7357411856808205e-15 1.7646156123764968e-15
lhumerus -49.198155074858754 -15.61703423082792 99.05294811180295
lradius 117.51454415808955
lwrist 33.81051856617499
lhand -24.89640224427411 2.821947385413848
lfingers 7.12502
lthumb 1.5797837841328102 32.64687460304054
rclavicle -1.7256696821452117e-15 1.785927492576444e-15
rhumerus -52.73543731271827 10.685596659142298 -98.15797546109417
rradius 107.37723675599969
rwrist -13.313124169935703
rhand -16.149983728170707 40.05354351358548
rfingers 7.12502
rthumb 9.97910676816995 10.395644132692526
67
root -0.06304498433627626 17.69889699845767 25.666672995648526 4.851134430599667 0.764712796483694 -1.6501593492091815
lfemur 4.168449971512613 -2.6731353829463176 -22.979153862315936
ltibia 43.021558014640235
lfoot 5.380850801213172 -9.251029506217101
ltoes -13.582225143587824
rfemur -26.707965656954446 1.4712736216744802 28.120690974147646
rtibia 58.28971287055417
rfoot 19.485828217873337 -4.729159976275231
rtoes 5.879964650338737
lowerback 17.19238574771947 0.08908441682708623 0.3967569496317134
upperback -0.7440320880961557 0.6233073614323699 3.036597968933144
thorax -9.538491575281183 -0.4814993089388343 3.2867015736032625
lowerneck -21.10557154398759 -3.2948959483033327 -2.475770886503082
upperneck 13.310867976554642 -3.919217551282243 3.474551082217367
head 7.6304864747954495 -1.7330384312698461 0.9159322224141486
lclavicle -1.7357413007420292e-15 1.7646156022030302e-15
lhumerus -50.315092145873855 -15.621224656260942 98.96318797621568
lradius 116.63134555039672
lwrist 33.45683181691409
lhand -24.90426701112254 2.8812021558427108
lfingers 7.12502
lthumb 1.5830211449840819 32.737746762029914
rclavicle -1.7256696488089292e-15 1.7859275134054698e-15
rhumerus -52.65251612495337 10.759059963167505 -97.99884465963954
rradius 108.73626422616042
rwrist -13.15191713950539
rhand -16.213554442317545 40.07357500250888
rfingers 7.12502
rthumb 9.908841556021137 10.40164447337731
